<?xml version="1.0" standalone="no"?>
<!DOCTYPE svg PUBLIC "-//W3C//DTD SVG 20010904//EN"
 "http://www.w3.org/TR/2001/REC-SVG-20010904/DTD/svg10.dtd">
<svg version="1.0" xmlns="http://www.w3.org/2000/svg"
 width="1122.000000pt" height="1122.000000pt" viewBox="0 0 1122.000000 1122.000000"
 preserveAspectRatio="xMidYMid meet">
<metadata>
Created by potrace 1.11, written by Peter Selinger 2001-2013
</metadata>
<g transform="translate(0.000000,1122.000000) scale(0.100000,-0.100000)"
fill="#000000" stroke="none">
<path d="M6692 8449 c-282 -75 -533 -319 -669 -649 -33 -81 -69 -201 -78 -265
-3 -22 -9 -63 -13 -90 -13 -82 -6 -263 13 -335 37 -141 107 -274 231 -439 78
-104 271 -304 362 -376 28 -22 53 -45 56 -51 2 -6 -21 -19 -52 -29 -93 -31
-273 -118 -358 -174 -153 -101 -316 -247 -430 -386 -149 -181 -289 -461 -339
-680 -27 -117 -38 -357 -21 -465 14 -95 20 -121 43 -195 73 -231 207 -380 398
-441 95 -31 262 -29 380 5 263 76 551 308 772 621 142 201 288 491 382 762 27
77 91 280 95 303 14 69 31 125 38 125 5 0 34 -11 66 -24 57 -23 186 -66 251
-83 l34 -8 2 -90 c5 -178 51 -281 148 -332 128 -66 312 -12 487 143 56 50 76
70 143 144 21 23 40 40 42 39 2 -2 5 -17 8 -34 13 -76 66 -190 110 -234 75
-78 207 -85 397 -21 72 24 235 100 292 136 59 37 53 41 73 -37 28 -106 93
-159 194 -159 63 0 117 26 148 73 11 18 121 231 243 475 140 279 227 442 236
442 11 0 14 -8 10 -32 -45 -273 -53 -548 -20 -696 25 -113 76 -209 128 -242
47 -28 132 -26 242 6 109 31 206 82 338 177 163 116 147 82 144 304 l-3 191
-76 -71 c-135 -128 -181 -165 -267 -216 -107 -63 -157 -44 -193 73 -11 38 -8
295 5 356 3 14 12 66 20 115 8 50 25 137 36 195 42 211 37 311 -19 392 -58 84
-201 93 -308 21 -54 -37 -84 -75 -137 -173 -13 -25 -43 -81 -67 -125 -24 -44
-77 -142 -118 -218 -82 -151 -108 -174 -98 -84 6 46 22 150 42 272 36 210 10
334 -75 367 -37 14 -112 12 -153 -5 -54 -23 -107 -83 -122 -137 0 -3 -4 -14
-8 -25 -3 -11 -8 -31 -11 -45 -2 -14 -7 -36 -10 -50 -3 -14 -8 -37 -10 -53 -3
-15 -7 -35 -10 -45 -7 -22 -53 -329 -62 -407 -3 -33 -8 -67 -9 -76 -2 -9 -6
-52 -10 -95 -8 -92 -7 -92 -149 -176 -161 -97 -295 -137 -332 -101 -9 9 -20
28 -26 42 -17 45 -16 182 2 286 10 55 21 116 24 135 5 33 9 52 21 110 3 14 8
42 11 64 3 21 8 48 10 60 2 11 6 35 9 51 3 17 10 53 15 80 20 105 38 277 31
300 -20 68 -64 90 -181 90 -97 -1 -156 -19 -189 -59 -10 -12 -58 -222 -84
-372 -15 -80 -29 -153 -37 -194 -5 -25 -12 -56 -14 -70 -36 -200 -63 -314 -85
-361 -63 -134 -200 -211 -265 -150 -13 12 -29 40 -37 63 -13 39 -6 118 25 298
10 58 46 278 51 315 3 22 8 51 11 65 2 14 6 36 9 50 13 84 36 221 41 255 22
126 4 151 -112 161 -83 7 -123 -7 -185 -66 -59 -56 -132 -227 -154 -360 -3
-19 -8 -46 -10 -60 -14 -82 -16 -96 -20 -110 -2 -8 -6 -32 -9 -52 -8 -51 -18
-110 -21 -128 -2 -8 -4 -27 -4 -42 -1 -16 -7 -28 -13 -28 -7 0 -71 35 -143 78
-194 116 -177 102 -169 142 4 19 7 42 6 50 0 8 4 34 9 57 5 23 11 68 14 100 7
90 16 185 20 213 17 117 24 604 12 787 -30 441 -153 783 -351 977 -60 58 -130
104 -206 134 -80 32 -94 35 -210 38 -80 2 -123 -2 -178 -17z m280 -355 c122
-41 207 -218 235 -494 12 -121 5 -647 -12 -800 -2 -19 -6 -73 -9 -120 -4 -47
-8 -98 -10 -115 -3 -16 -7 -64 -11 -105 -10 -118 -7 -116 -73 -68 -55 40 -166
127 -226 178 -325 274 -501 549 -511 798 -11 281 214 641 455 725 59 20 106
21 162 1z m102 -2214 c-117 -532 -280 -942 -503 -1265 -69 -100 -228 -259
-302 -303 -173 -101 -319 -90 -395 30 -14 22 -27 46 -29 52 -1 6 -5 18 -8 26
-14 31 -25 148 -20 210 14 206 131 467 324 725 206 276 524 504 802 574 71 18
71 18 104 -3 26 -17 31 -26 27 -46z"/>
<path d="M4177 7919 c-69 -16 -119 -51 -153 -110 -24 -40 -32 -77 -39 -170
-14 -194 -46 -515 -60 -599 -2 -14 -13 -95 -25 -180 -12 -85 -26 -174 -31
-198 -5 -23 -11 -57 -13 -75 -3 -17 -12 -66 -20 -107 -8 -41 -17 -86 -20 -100
-8 -46 -66 -284 -80 -330 -55 -182 -73 -235 -110 -324 -136 -330 -335 -500
-485 -415 -78 43 -115 139 -141 364 -8 72 -5 581 4 625 2 14 7 63 11 109 3 47
7 94 10 105 2 12 7 50 10 86 3 36 8 79 10 95 2 17 7 53 10 80 7 55 9 73 25
190 13 95 19 131 25 165 2 14 7 45 10 70 3 25 7 55 9 67 3 11 8 43 12 70 3 26
8 57 10 68 2 11 7 40 10 65 3 25 9 63 13 85 21 115 -20 184 -123 203 -57 11
-180 4 -218 -12 -59 -25 -107 -74 -137 -140 -26 -55 -63 -184 -75 -261 -9 -63
-69 -327 -112 -500 -172 -687 -384 -1181 -582 -1356 -170 -150 -335 -112 -412
96 -12 33 -24 71 -26 85 -3 14 -7 31 -9 38 -18 51 -26 318 -13 437 6 56 24
174 33 220 2 11 11 58 20 105 23 118 76 329 142 560 30 107 57 202 59 210 2 8
21 79 43 158 71 252 82 331 58 402 -19 55 -62 74 -168 72 -138 -2 -212 -49
-285 -178 -98 -174 -248 -674 -289 -959 -3 -23 -7 -51 -10 -64 -2 -13 -7 -49
-11 -80 -3 -31 -8 -64 -10 -74 -25 -137 -24 -614 2 -777 66 -416 216 -680 428
-757 42 -15 161 -19 246 -8 113 14 246 64 333 124 162 111 319 365 405 656 40
135 61 210 65 240 3 17 10 51 16 78 6 26 14 64 17 85 3 20 7 38 8 39 1 1 2
-71 2 -160 -1 -206 7 -301 38 -475 18 -99 59 -221 101 -300 76 -145 203 -258
311 -278 15 -3 31 -7 36 -10 11 -7 175 -6 213 1 95 18 216 72 308 138 86 62
209 185 260 260 12 17 36 51 53 74 17 23 51 76 74 118 24 41 45 73 47 71 3 -2
7 -19 9 -38 16 -114 100 -221 195 -249 57 -16 141 -12 209 11 87 29 213 114
306 207 l76 76 -6 86 c-4 47 -9 113 -13 146 -3 33 -6 72 -6 87 -1 15 -4 25 -9
22 -4 -3 -8 -11 -8 -18 0 -19 -72 -127 -111 -164 -76 -75 -152 -113 -226 -113
-112 -1 -184 45 -217 137 -15 45 -18 153 -5 194 4 14 10 39 13 55 6 39 44 220
56 265 5 19 12 49 15 66 3 18 23 121 44 230 22 110 42 213 44 229 6 31 35 212
42 255 5 31 31 244 40 325 4 33 8 125 10 205 3 133 2 149 -18 190 -30 61 -70
82 -160 85 -40 1 -89 -2 -110 -6z"/>
</g>
</svg>
